<?xml version="1.0" encoding="utf-8"?>
<svg xmlns="http://www.w3.org/2000/svg" viewBox="-1177.9375 -490.8794 3003.617 1370.1459" width="3003.62px" height="1370.15px">
  <g transform="matrix(8.10808086, 0.02159, -0.02159, 8.10808086, 138.87097502, 110.19354804)" style="transform-origin: 185px 84px;">
    <defs id="SvgjsDefs1515">
      <linearGradient id="SvgjsLinearGradient1522">
        <stop id="SvgjsStop1523" stop-color="#fbb040" offset="0"/>
        <stop id="SvgjsStop1524" stop-color="#f9ed32" offset="1"/>
      </linearGradient>
      <linearGradient id="SvgjsLinearGradient1525">
        <stop id="SvgjsStop1526" stop-color="#fbb040" offset="0"/>
        <stop id="SvgjsStop1527" stop-color="#f9ed32" offset="1"/>
      </linearGradient>
      <linearGradient id="SvgjsLinearGradient1528">
        <stop id="SvgjsStop1529" stop-color="#fbb040" offset="0"/>
        <stop id="SvgjsStop1530" stop-color="#f9ed32" offset="1"/>
      </linearGradient>
    </defs>
    <g id="SvgjsG1516" featurekey="PG4fjM-0" transform="matrix(-2.333333333333334,0,0,-2.333333333333334,201.83333333333337,201.83333333333337)" fill="url(#SvgjsLinearGradient1522)">
      <g xmlns="http://www.w3.org/2000/svg">
        <path fill="url(#SvgjsLinearGradient1522)" d="M50.5,14.5c-19.883,0-36,16.117-36,36h18c0-9.941,8.059-18,18-18s18,8.059,18,18v36h18v-36   C86.5,30.617,70.383,14.5,50.5,14.5z"/>
        <path fill="url(#SvgjsLinearGradient1522)" d="M 14.5 77.5 C 14.5 82.471 18.529 86.5 23.5 86.5 C 28.471 86.5 32.5 82.471 32.5 77.5 C 32.5 68.5 23.5 59.5 23.5 59.5 C 23.5 59.5 14.5 68.5 14.5 77.5 Z" style="transform-box: fill-box; transform-origin: 50% 50%;" transform="matrix(-1, 0, 0, -1, 0.000001, 0.000001)"/>
      </g>
    </g>
    <g id="SvgjsG1517" featurekey="nameFeature-0" transform="matrix(3.9704620878697465,0,0,3.9704620878697465,185.30008788177145,-11.690712754340236)" fill="url(#SvgjsLinearGradient1525)">
      <path d="M4.08 20 q-0.02 -0.22 -0.03 -0.44 t-0.01 -0.46 q-0.28 0.5 -0.73 0.77 t-1.03 0.27 q-1.6 0 -1.6 -2.14 l0 -10.38 l1.38 0 l0 10.16 q0 0.56 0.18 0.78 t0.58 0.22 q0.32 0 0.61 -0.17 t0.45 -0.57 l0 -10.42 l1.38 0 l0 12.38 l-1.18 0 z M10.285499999999999 10 q0 -0.58 -0.21 -0.81 t-0.67 -0.23 q-0.34 0 -0.63 0.2 t-0.43 0.6 l0 8.24 q0.14 0.4 0.43 0.6 t0.63 0.2 q0.46 0 0.67 -0.23 t0.21 -0.77 l0 -7.8 z M6.9655000000000005 22.78 l0 -15.16 l1.16 0 q0.06 0.46 0.06 0.94 q0.22 -0.52 0.62 -0.79 t1.08 -0.27 q0.86 0 1.31 0.56 t0.45 1.76 l0 8.1 q0 1.26 -0.42 1.76 t-1.38 0.5 q-0.5 0 -0.89 -0.21 t-0.61 -0.55 l0 3.36 l-1.38 0 z M16.131 16.42 q0 -0.4 -0.11 -0.69 t-0.49 -0.75 q-0.42 -0.5 -0.94 -0.95 t-0.9 -0.91 q-0.4 -0.44 -0.52 -0.88 t-0.12 -1.16 l0 -1.28 q0 -1.28 0.56 -1.83 t1.64 -0.55 q1.26 0 1.73 0.56 t0.47 1.82 l0 2.02 l-1.26 0 l0 -2.02 q0 -0.46 -0.26 -0.73 t-0.64 -0.27 q-0.9 0 -0.9 1 l0 1.46 q0 0.44 0.11 0.69 t0.45 0.61 q0.4 0.44 0.9 0.84 t0.88 0.84 q0.46 0.54 0.62 1.05 t0.16 1.31 l0 1.34 q0 1.2 -0.57 1.72 t-1.73 0.52 q-2.16 0 -2.16 -2.3 l0 -2.02 l1.24 0 l0 1.98 q0 0.46 0.27 0.73 t0.67 0.27 q0.9 0 0.9 -1 l0 -1.42 z M21.896500000000003 20.08 q-0.1 0.04 -0.29 0.07 t-0.35 0.03 q-1.1 0 -1.64 -0.68 t-0.54 -1.88 l0 -8.78 l-0.58 0 l0 -1.22 l0.58 0 l0 -3.92 l1.38 0 l0 3.92 l1.4 0 l0 1.22 l-1.4 0 l0 8.78 q0 0.76 0.27 1.07 t0.91 0.31 l0.13 0 t0.13 -0.02 l0 1.1 z M23.082 20 l0 -12.38 l1.16 0 q0.06 0.46 0.06 0.9 q0.26 -0.54 0.63 -0.78 t0.87 -0.24 q0.26 0 0.42 0.08 l0 1.54 q-0.1 -0.08 -0.28 -0.11 t-0.34 -0.03 q-0.32 0 -0.63 0.15 t-0.51 0.59 l0 10.28 l-1.38 0 z M30.387500000000003 9.96 q0 -1.1 -0.92 -1.1 q-0.86 0 -0.86 1.1 l0 2.98 l1.78 0 l0 -2.98 z M30.387500000000003 14.96 l1.3 0 l0 2.72 q0 2.5 -2.22 2.5 q-2.14 0 -2.14 -2.5 l0 -7.72 q0 -1.26 0.55 -1.9 t1.59 -0.64 q2.22 0 2.22 2.54 l0 3.98 l-3.08 0 l0 3.74 q0 1.1 0.86 1.1 q0.92 0 0.92 -1.1 l0 -2.72 z M36.333 20 q-0.08 -0.26 -0.08 -0.74 q-0.5 0.92 -1.48 0.92 q-0.84 0 -1.31 -0.46 t-0.47 -1.5 l0 -1.82 q0 -0.9 0.25 -1.51 t0.68 -1.03 t1.01 -0.71 t1.24 -0.57 l0 -2.7 q0 -0.52 -0.19 -0.8 t-0.71 -0.28 q-0.54 0 -0.72 0.28 t-0.18 0.8 l0 2.6 l-1.22 0 l0 -2.62 q0 -1.22 0.51 -1.83 t1.65 -0.61 q2.18 0 2.18 2.44 l0 8.72 q0 0.44 0.02 0.82 t0.08 0.6 l-1.26 0 z M36.173 13.68 q-0.6 0.22 -0.97 0.48 t-0.56 0.59 t-0.25 0.76 t-0.06 0.99 l0 1.32 q0 1.02 0.94 1.02 q0.3 0 0.55 -0.18 t0.35 -0.6 l0 -4.38 z M45.158500000000004 20 l0 -10.3 q0 -0.92 -0.7 -0.92 q-0.28 0 -0.52 0.18 t-0.4 0.58 l0 10.46 l-1.38 0 l0 -10.3 q0 -0.92 -0.7 -0.92 q-0.26 0 -0.5 0.18 t-0.4 0.58 l0 10.46 l-1.38 0 l0 -12.38 l1.16 0 q0.06 0.46 0.06 0.92 q0.26 -0.52 0.68 -0.82 t0.94 -0.3 q1.06 0 1.34 1.08 q0.26 -0.5 0.69 -0.79 t0.97 -0.29 q0.78 0 1.14 0.56 t0.36 1.7 l0 10.32 l-1.36 0 z"/>
    </g>
    <g id="SvgjsG1518" featurekey="nameFeature-1" transform="matrix(4.5526703280332255,0,0,4.5526703280332255,184.63102445655835,72.88354287066821)" fill="url(#SvgjsLinearGradient1528)">
      <path d="M0.74 20 l0 -16.46 l1.38 0 l0 16.46 l-1.38 0 z M6.8854999999999995 20 q-0.08 -0.26 -0.08 -0.74 q-0.5 0.92 -1.48 0.92 q-0.84 0 -1.31 -0.46 t-0.47 -1.5 l0 -1.82 q0 -0.9 0.25 -1.51 t0.68 -1.03 t1.01 -0.71 t1.24 -0.57 l0 -2.7 q0 -0.52 -0.19 -0.8 t-0.71 -0.28 q-0.54 0 -0.72 0.28 t-0.18 0.8 l0 2.6 l-1.22 0 l0 -2.62 q0 -1.22 0.51 -1.83 t1.65 -0.61 q2.18 0 2.18 2.44 l0 8.72 q0 0.44 0.02 0.82 t0.08 0.6 l-1.26 0 z M6.7255 13.68 q-0.6 0.22 -0.97 0.48 t-0.56 0.59 t-0.25 0.76 t-0.06 0.99 l0 1.32 q0 1.02 0.94 1.02 q0.3 0 0.55 -0.18 t0.35 -0.6 l0 -4.38 z M13.050999999999998 9.8 q0 -0.94 -0.88 -0.94 q-0.34 0 -0.63 0.2 t-0.43 0.6 l0 8.2 q0.14 0.4 0.43 0.61 t0.63 0.21 q0.46 0 0.67 -0.23 t0.21 -0.81 l0 -7.84 z M9.731 20 l0 -16.46 l1.38 0 l0 4.68 q0.22 -0.36 0.61 -0.58 t0.89 -0.22 q0.96 0 1.38 0.53 t0.42 1.75 l0 7.92 q0 1.32 -0.48 1.92 t-1.56 0.6 q-0.62 0 -1.03 -0.3 t-0.65 -0.76 q-0.04 0.24 -0.09 0.47 t-0.13 0.45 l-0.74 0 z M18.8965 16.42 q0 -0.4 -0.11 -0.69 t-0.49 -0.75 q-0.42 -0.5 -0.94 -0.95 t-0.9 -0.91 q-0.4 -0.44 -0.52 -0.88 t-0.12 -1.16 l0 -1.28 q0 -1.28 0.56 -1.83 t1.64 -0.55 q1.26 0 1.73 0.56 t0.47 1.82 l0 2.02 l-1.26 0 l0 -2.02 q0 -0.46 -0.26 -0.73 t-0.64 -0.27 q-0.9 0 -0.9 1 l0 1.46 q0 0.44 0.11 0.69 t0.45 0.61 q0.4 0.44 0.9 0.84 t0.88 0.84 q0.46 0.54 0.62 1.05 t0.16 1.31 l0 1.34 q0 1.2 -0.57 1.72 t-1.73 0.52 q-2.16 0 -2.16 -2.3 l0 -2.02 l1.24 0 l0 1.98 q0 0.46 0.27 0.73 t0.67 0.27 q0.9 0 0.9 -1 l0 -1.42 z"/>
    </g>
  </g>
</svg>