<?xml version="1.0" encoding="utf-8"?>
<svg xmlns="http://www.w3.org/2000/svg" viewBox="378.8387 370.4516 72 72" width="72px" height="72px" xmlns:bx="https://boxy-svg.com">
  <defs>
    <bx:export>
      <bx:file format="png" href="#object-0" path="upstreamlabs.png" dpi="120" width="100" height="100" background="#fff0"/>
      <bx:file format="png" href="#object-1" path="未命名 2.png" excluded="true"/>
      <bx:file format="png" href="#object-2" path="未命名 3.png" excluded="true"/>
    </bx:export>
    <linearGradient bx:pinned="true" id="color-0">
      <stop style="stop-color: #bdc3c7;" offset="0"/>
      <stop style="stop-color: #2c3e50;" offset="1"/>
    </linearGradient>
    <linearGradient id="color-1" bx:pinned="true">
      <stop style="stop-color: #c6ffdd;" offset="0"/>
      <stop style="stop-color: #fbd786;" offset="0.5"/>
      <stop style="stop-color: #f7797d;" offset="1"/>
    </linearGradient>
    <linearGradient id="color-2" gradientUnits="userSpaceOnUse" bx:pinned="true">
      <stop style="stop-color: rgb(236, 229, 40);"/>
    </linearGradient>
    <linearGradient id="color-3" bx:pinned="true" gradientUnits="userSpaceOnUse">
      <stop style="stop-color: rgb(239, 191, 4);"/>
    </linearGradient>
    <linearGradient bx:pinned="true" id="color-4">
      <stop style="stop-color: #22c1c3;" offset="0"/>
      <stop style="stop-color: #fdbb2d;" offset="1"/>
    </linearGradient>
  </defs>
  <g transform="matrix(-1, 0, 0, -1, 465.3387451171875, 456.95162963867193)" id="object-0">
    <path d="M50.5,14.5c-19.883,0-36,16.117-36,36h18c0-9.941,8.059-18,18-18s18,8.059,18,18v36h18v-36C86.5,30.617,70.383,14.5,50.5,14.5z" style="paint-order: fill; fill: url(&quot;#color-3&quot;);" id="object-1"/>
    <path d="M 14.5 77.5 C 14.5 82.471 18.529 86.5 23.5 86.5 C 28.471 86.5 32.5 82.471 32.5 77.5 C 32.5 68.5 23.5 59.5 23.5 59.5 C 23.5 59.5 14.5 68.5 14.5 77.5 Z" style="transform-box: fill-box; transform-origin: 50% 50%; fill: url(&quot;#color-3&quot;);" transform="matrix(-1, 0, 0, -1, 0.000005, 0.000001)" id="object-2"/>
  </g>
</svg>